<svg data-v-423bf9ae="" xmlns="http://www.w3.org/2000/svg" viewBox="0 0 417 113" class="iconLeft"><!----><!----><!----><g data-v-423bf9ae="" id="09cf85ce-9e9b-4d6a-8c73-b7cd912f3efb" fill="#FFFFFF" transform="matrix(4.889975367689235,0,0,4.889975367689235,161.71532831346838,21.94220917863514)"><path d="M3.32 6.29L3.32 6.29Q4.45 5.22 5.35 4.51L5.35 4.51L5.35 4.51Q4.62 4.47 3.16 4.33L3.16 4.33L3.16 4.33Q3.28 5.39 3.32 6.29L3.32 6.29ZM8.18 2.70L8.18 2.70Q8.36 2.83 8.36 3.04L8.36 3.04L8.36 3.04Q8.36 3.54 7.51 4.35L7.51 4.35L7.51 4.35Q6.66 5.15 5.11 6.38L5.11 6.38L5.11 6.38Q4.30 7.03 3.89 7.38L3.89 7.38L3.89 7.38Q3.47 7.73 3.37 7.91L3.37 7.91L3.37 7.91Q3.30 8.04 3.28 8.20L3.28 8.20L3.28 8.20Q3.25 8.37 3.25 8.56L3.25 8.56L3.25 8.56Q3.25 8.75 3.23 8.88L3.23 8.88L3.23 8.88Q3.14 9.56 3.01 10.08L3.01 10.08L3.01 10.08Q2.88 10.60 2.72 10.99L2.72 10.99L2.72 10.99Q2.56 11.38 2.28 11.69L2.28 11.69L2.28 11.69Q2.10 11.90 1.86 12.08L1.86 12.08L1.86 12.08Q1.62 12.25 1.41 12.25L1.41 12.25L1.41 12.25Q0.94 12.25 0.94 11.48L0.94 11.48L0.94 11.48Q0.94 11.23 0.99 10.90L0.99 10.90L0.99 10.90Q1.04 10.57 1.05 10.47L1.05 10.47L1.12 10.02L1.12 10.02Q0.81 10.28 0.56 10.28L0.56 10.28L0.56 10.28Q0.39 10.28 0.31 10.16L0.31 10.16L0.31 10.16Q0.22 10.05 0.22 9.86L0.22 9.86L0.22 9.86Q0.22 9.58 0.38 9.28L0.38 9.28L0.38 9.28Q0.50 9.03 0.83 8.68L0.83 8.68L0.83 8.68Q1.08 8.39 1.18 8.23L1.18 8.23L1.18 8.23Q1.29 8.06 1.33 7.87L1.33 7.87L1.33 7.87Q1.44 7.15 1.44 6.50L1.44 6.50L1.44 6.50Q1.44 5.96 1.39 5.56L1.39 5.56L1.39 5.56Q1.34 5.22 1.26 4.90L1.26 4.90L1.26 4.90Q1.25 4.83 1.18 4.47L1.18 4.47L1.18 4.47Q1.11 4.12 1.11 3.81L1.11 3.81L1.11 3.81Q1.11 2.32 2.79 2.32L2.79 2.32L2.79 2.32Q2.97 2.32 3.33 2.35L3.33 2.35L3.33 2.35Q4.23 2.44 5.47 2.46L5.47 2.46L5.91 2.48L6.93 2.46L6.93 2.46Q7.81 2.46 8.18 2.70L8.18 2.70ZM12.35 9.63L12.35 9.63Q12.67 8.88 12.67 8.08L12.67 8.08L12.67 8.08Q12.67 7.45 12.45 6.92L12.45 6.92L12.45 6.92Q12.24 6.40 11.77 6.06L11.77 6.06L11.77 6.06Q11.47 5.84 11.19 5.84L11.19 5.84L11.19 5.84Q11.07 5.84 10.91 5.89L10.91 5.89L10.91 5.89Q11.03 5.95 11.03 6.09L11.03 6.09L11.03 6.09Q11.03 6.17 10.98 6.29L10.98 6.29L10.98 6.29Q10.65 6.90 10.47 7.62L10.47 7.62L10.47 7.62Q10.29 8.34 10.29 9.07L10.29 9.07L10.29 9.07Q10.29 9.91 10.54 10.67L10.54 10.67L10.54 10.67Q10.71 11.09 10.89 11.33L10.89 11.33L10.89 11.33Q10.98 11.42 11.06 11.47L11.06 11.47L11.06 11.47Q11.47 11.19 11.79 10.68L11.79 10.68L11.79 10.68Q12.12 10.18 12.35 9.63L12.35 9.63ZM12.15 4.72L12.15 4.72Q12.84 4.86 13.33 5.32L13.33 5.32L13.33 5.32Q13.82 5.78 14.07 6.43L14.07 6.43L14.07 6.43Q14.32 7.08 14.32 7.78L14.32 7.78L14.32 7.78Q14.32 8.61 14 9.48L14 9.48L14 9.48Q13.68 10.35 13.12 11.07L13.12 11.07L13.12 11.07Q12.56 11.80 11.87 12.22L11.87 12.22L11.87 12.22Q11.23 12.61 10.61 12.61L10.61 12.61L10.61 12.61Q10.00 12.61 9.53 12.24L9.53 12.24L9.53 12.24Q9.07 11.86 8.86 11.14L8.86 11.14L8.86 11.14Q8.62 10.42 8.62 9.51L8.62 9.51L8.62 9.51Q8.62 8.96 8.71 8.44L8.71 8.44L8.71 8.44Q8.61 8.47 8.41 8.47L8.41 8.47L8.41 8.47Q7.94 8.47 7.94 8.15L7.94 8.15L7.94 8.15Q7.94 8.04 7.97 7.97L7.97 7.97L7.97 7.97Q8.44 6.64 9.40 5.65L9.40 5.65L9.40 5.65Q10.36 4.66 11.61 4.66L11.61 4.66L11.61 4.66Q11.79 4.66 12.15 4.72L12.15 4.72ZM17.04 7.98L17.44 7.64L17.44 7.64Q17.99 7.21 18.33 6.87L18.33 6.87L18.33 6.87Q18.68 6.54 18.86 6.20L18.86 6.20L18.86 6.20Q18.10 6.01 16.62 5.56L16.62 5.56L16.55 8.40L16.55 8.40Q16.97 8.05 17.04 7.98L17.04 7.98ZM19.70 9.60L19.70 9.60Q19.81 9.38 20.17 9.22L20.17 9.22L20.17 9.22Q20.54 9.06 20.87 9.06L20.87 9.06L20.87 9.06Q21.34 9.06 21.34 9.35L21.34 9.35L21.34 9.35Q21.34 9.44 21.29 9.55L21.29 9.55L21.29 9.55Q20.72 10.89 20.43 12.15L20.43 12.15L20.43 12.15Q20.36 12.43 20.02 12.67L20.02 12.67L20.02 12.67Q19.88 12.85 19.59 12.98L19.59 12.98L19.59 12.98Q19.31 13.10 19.03 13.10L19.03 13.10L19.03 13.10Q18.79 13.10 18.64 13.01L18.64 13.01L18.64 13.01Q18.49 12.91 18.48 12.70L18.48 12.70L18.48 12.70Q18.42 11.79 17.88 11.03L17.88 11.03L17.88 11.03Q17.35 10.28 16.51 10.05L16.51 10.05L16.44 12.08L16.44 12.08Q16.42 12.35 15.99 12.57L15.99 12.57L15.99 12.57Q15.57 12.80 15.18 12.80L15.18 12.80L15.18 12.80Q14.97 12.80 14.84 12.72L14.84 12.72L14.84 12.72Q14.71 12.64 14.71 12.47L14.71 12.47L14.76 10.54L14.76 10.54Q14.57 10.42 14.57 10.25L14.57 10.25L14.57 10.25Q14.57 10.05 14.78 9.87L14.78 9.87L14.78 9.87Q14.85 7.32 14.95 4.79L14.95 4.79L14.95 4.79Q14.97 4.49 15.35 4.28L15.35 4.28L15.35 4.28Q15.74 4.06 16.13 4.06L16.13 4.06L16.13 4.06Q16.42 4.06 16.55 4.20L16.55 4.20L16.55 4.20Q18.07 4.62 19.71 5.12L19.71 5.12L19.71 5.12Q19.96 5.07 20.06 5.07L20.06 5.07L20.06 5.07Q20.30 5.07 20.43 5.17L20.43 5.17L20.43 5.17Q20.57 5.28 20.57 5.49L20.57 5.49L20.57 5.49Q20.57 6.06 20.19 6.54L20.19 6.54L20.19 6.54Q19.81 7.03 19.14 7.62L19.14 7.62L18.86 7.87L18.86 7.87Q18.19 8.53 17.56 9.03L17.56 9.03L17.56 9.03Q18.70 9.35 19.40 10.30L19.40 10.30L19.40 10.30Q19.46 10.16 19.70 9.60L19.70 9.60ZM26.03 4.28L26.03 4.28Q26.32 4.26 26.48 4.35L26.48 4.35L26.48 4.35Q26.64 4.45 26.82 4.73L26.82 4.73L26.82 4.73Q26.94 4.91 26.94 5.04L26.94 5.04L26.94 5.04Q26.94 5.35 26.54 5.40L26.54 5.40L26.05 5.46L26.05 5.46Q25.37 5.56 25.33 5.56L25.33 5.56L25.33 5.56Q25.09 7.80 24.95 9.45L24.95 9.45L24.95 9.45Q24.81 11.10 24.77 12.71L24.77 12.71L24.77 12.71Q24.75 12.91 24.61 13.01L24.61 13.01L24.61 13.01Q24.46 13.10 24.22 13.10L24.22 13.10L24.22 13.10Q23.80 13.10 23.39 12.87L23.39 12.87L23.39 12.87Q22.97 12.64 22.99 12.35L22.99 12.35L22.99 12.35Q23.03 10.86 23.16 9.32L23.16 9.32L23.16 9.32Q23.28 7.77 23.49 5.73L23.49 5.73L22.61 5.84L22.61 5.84Q22.41 5.85 22.31 5.82L22.31 5.82L22.31 5.82Q22.20 5.78 22.11 5.66L22.11 5.66L22.11 5.66Q22.01 5.53 21.91 5.38L21.91 5.38L21.91 5.38Q21.80 5.22 21.80 5.07L21.80 5.07L21.80 5.07Q21.80 4.94 21.90 4.84L21.90 4.84L21.90 4.84Q21.99 4.75 22.19 4.72L22.19 4.72L22.19 4.72Q22.50 4.68 22.90 4.62L22.90 4.62L23.62 4.52L23.87 2.10L23.87 2.10Q23.91 1.71 24.44 1.71L24.44 1.71L24.44 1.71Q24.86 1.71 25.26 1.94L25.26 1.94L25.26 1.94Q25.66 2.17 25.63 2.46L25.63 2.46L25.45 4.34L25.45 4.34Q25.84 4.31 26.03 4.28L26.03 4.28ZM31.78 4.93L31.78 4.93Q31.92 4.79 32.24 4.68L32.24 4.68L32.24 4.68Q32.56 4.58 32.83 4.58L32.83 4.58L32.83 4.58Q33.25 4.58 33.25 4.83L33.25 4.83L33.25 4.83Q33.25 4.97 33.12 5.14L33.12 5.14L33.12 5.14Q32.69 5.73 32.02 6.04L32.02 6.04L32.02 6.04Q31.36 6.36 30.59 6.36L30.59 6.36L30.59 6.36Q29.81 6.36 28.94 5.94L28.94 5.94L28.94 5.94Q29.06 7.03 29.06 8.12L29.06 8.12L29.50 8.13L29.50 8.13Q30.14 8.16 31.22 8.23L31.22 8.23L31.74 8.27L31.74 8.27Q32.24 8.32 32.24 8.60L32.24 8.60L32.24 8.60Q32.24 8.83 31.93 9.09L31.93 9.09L31.93 9.09Q31.61 9.34 31.29 9.34L31.29 9.34L31.29 9.34Q30.72 9.34 29.90 9.28L29.90 9.28L29.02 9.24L29.02 9.24Q28.91 10.67 28.62 11.94L28.62 11.94L28.62 11.94Q28.56 12.24 28.15 12.45L28.15 12.45L28.15 12.45Q27.73 12.66 27.34 12.66L27.34 12.66L27.34 12.66Q27.10 12.66 26.98 12.56L26.98 12.56L26.98 12.56Q26.85 12.47 26.89 12.28L26.89 12.28L26.89 12.28Q27.24 10.74 27.33 9.14L27.33 9.14L27.09 9.14L27.09 9.14L27.09 9.14Q26.77 9.14 26.77 8.95L26.77 8.95L26.77 8.95Q26.77 8.81 26.90 8.64L26.90 8.64L26.90 8.64Q27.03 8.47 27.19 8.39L27.19 8.39L27.34 8.30L27.34 8.30Q27.34 6.61 27.03 4.97L27.03 4.97L27.03 4.87L27.03 4.87Q26.96 4.77 26.96 4.70L26.96 4.70L26.96 4.70Q26.96 4.45 27.38 4.20L27.38 4.20L27.38 4.20Q27.79 3.95 28.15 3.95L28.15 3.95L28.15 3.95Q28.27 3.95 28.41 4.00L28.41 4.00L28.95 4.33L28.95 4.33Q29.64 4.75 30.12 4.98L30.12 4.98L30.12 4.98Q30.60 5.22 31.05 5.22L31.05 5.22L31.05 5.22Q31.49 5.22 31.78 4.93L31.78 4.93ZM37.35 9.63L37.35 9.63Q37.67 8.88 37.67 8.08L37.67 8.08L37.67 8.08Q37.67 7.45 37.46 6.92L37.46 6.92L37.46 6.92Q37.24 6.40 36.78 6.06L36.78 6.06L36.78 6.06Q36.47 5.84 36.19 5.84L36.19 5.84L36.19 5.84Q36.08 5.84 35.91 5.89L35.91 5.89L35.91 5.89Q36.04 5.95 36.04 6.09L36.04 6.09L36.04 6.09Q36.04 6.17 35.98 6.29L35.98 6.29L35.98 6.29Q35.66 6.90 35.48 7.62L35.48 7.62L35.48 7.62Q35.29 8.34 35.29 9.07L35.29 9.07L35.29 9.07Q35.29 9.91 35.55 10.67L35.55 10.67L35.55 10.67Q35.71 11.09 35.90 11.33L35.90 11.33L35.90 11.33Q35.98 11.42 36.06 11.47L36.06 11.47L36.06 11.47Q36.47 11.19 36.80 10.68L36.80 10.68L36.80 10.68Q37.13 10.18 37.35 9.63L37.35 9.63ZM37.16 4.72L37.16 4.72Q37.84 4.86 38.33 5.32L38.33 5.32L38.33 5.32Q38.82 5.78 39.07 6.43L39.07 6.43L39.07 6.43Q39.33 7.08 39.33 7.78L39.33 7.78L39.33 7.78Q39.33 8.61 39.00 9.48L39.00 9.48L39.00 9.48Q38.68 10.35 38.12 11.07L38.12 11.07L38.12 11.07Q37.56 11.80 36.88 12.22L36.88 12.22L36.88 12.22Q36.23 12.61 35.62 12.61L35.62 12.61L35.62 12.61Q35 12.61 34.54 12.24L34.54 12.24L34.54 12.24Q34.08 11.86 33.87 11.14L33.87 11.14L33.87 11.14Q33.63 10.42 33.63 9.51L33.63 9.51L33.63 9.51Q33.63 8.96 33.71 8.44L33.71 8.44L33.71 8.44Q33.61 8.47 33.42 8.47L33.42 8.47L33.42 8.47Q32.94 8.47 32.94 8.15L32.94 8.15L32.94 8.15Q32.94 8.04 32.97 7.97L32.97 7.97L32.97 7.97Q33.45 6.64 34.41 5.65L34.41 5.65L34.41 5.65Q35.36 4.66 36.61 4.66L36.61 4.66L36.61 4.66Q36.79 4.66 37.16 4.72L37.16 4.72ZM41.31 1.53L41.31 1.53Q41.34 1.26 41.76 1.04L41.76 1.04L41.76 1.04Q42.18 0.83 42.56 0.83L42.56 0.83L42.56 0.83Q43.01 0.83 42.99 1.16L42.99 1.16L42.99 1.16Q42.77 3.67 42.25 8.08L42.25 8.08L42.25 8.08Q41.92 11.09 41.82 11.98L41.82 11.98L41.82 11.98Q41.79 12.28 41.38 12.51L41.38 12.51L41.38 12.51Q40.96 12.74 40.57 12.74L40.57 12.74L40.57 12.74Q40.03 12.74 40.07 12.33L40.07 12.33L40.07 12.33Q40.56 7.52 41.31 1.53L41.31 1.53ZM43.75 5.10L43.75 5.10Q43.76 4.82 44.16 4.60L44.16 4.60L44.16 4.60Q44.55 4.38 44.94 4.38L44.94 4.38L44.94 4.38Q45.16 4.38 45.30 4.47L45.30 4.47L45.30 4.47Q45.44 4.56 45.43 4.76L45.43 4.76L45.02 12.36L45.02 12.36Q45.01 12.66 44.62 12.87L44.62 12.87L44.62 12.87Q44.23 13.09 43.83 13.09L43.83 13.09L43.83 13.09Q43.32 13.09 43.33 12.68L43.33 12.68L43.75 5.10ZM43.72 3.25L43.72 3.25Q43.69 3.44 43.83 3.54L43.83 3.54L43.83 3.54Q43.96 3.64 44.18 3.64L44.18 3.64L44.18 3.64Q44.56 3.64 44.95 3.43L44.95 3.43L44.95 3.43Q45.35 3.22 45.39 2.93L45.39 2.93L45.39 2.93Q45.50 2.23 45.54 1.88L45.54 1.88L45.54 1.88Q45.60 1.53 45.11 1.53L45.11 1.53L45.11 1.53Q44.73 1.53 44.32 1.74L44.32 1.74L44.32 1.74Q43.92 1.95 43.89 2.21L43.89 2.21L43.72 3.25ZM50.19 9.63L50.19 9.63Q50.51 8.88 50.51 8.08L50.51 8.08L50.51 8.08Q50.51 7.45 50.29 6.92L50.29 6.92L50.29 6.92Q50.08 6.40 49.62 6.06L49.62 6.06L49.62 6.06Q49.31 5.84 49.03 5.84L49.03 5.84L49.03 5.84Q48.92 5.84 48.75 5.89L48.75 5.89L48.75 5.89Q48.87 5.95 48.87 6.09L48.87 6.09L48.87 6.09Q48.87 6.17 48.82 6.29L48.82 6.29L48.82 6.29Q48.50 6.90 48.31 7.62L48.31 7.62L48.31 7.62Q48.13 8.34 48.13 9.07L48.13 9.07L48.13 9.07Q48.13 9.91 48.38 10.67L48.38 10.67L48.38 10.67Q48.55 11.09 48.73 11.33L48.73 11.33L48.73 11.33Q48.82 11.42 48.90 11.47L48.90 11.47L48.90 11.47Q49.31 11.19 49.64 10.68L49.64 10.68L49.64 10.68Q49.97 10.18 50.19 9.63L50.19 9.63ZM49.99 4.72L49.99 4.72Q50.68 4.86 51.17 5.32L51.17 5.32L51.17 5.32Q51.66 5.78 51.91 6.43L51.91 6.43L51.91 6.43Q52.16 7.08 52.16 7.78L52.16 7.78L52.16 7.78Q52.16 8.61 51.84 9.48L51.84 9.48L51.84 9.48Q51.52 10.35 50.96 11.07L50.96 11.07L50.96 11.07Q50.40 11.80 49.71 12.22L49.71 12.22L49.71 12.22Q49.07 12.61 48.45 12.61L48.45 12.61L48.45 12.61Q47.84 12.61 47.38 12.24L47.38 12.24L47.38 12.24Q46.91 11.86 46.70 11.14L46.70 11.14L46.70 11.14Q46.47 10.42 46.47 9.51L46.47 9.51L46.47 9.51Q46.47 8.96 46.55 8.44L46.55 8.44L46.55 8.44Q46.45 8.47 46.26 8.47L46.26 8.47L46.26 8.47Q45.78 8.47 45.78 8.15L45.78 8.15L45.78 8.15Q45.78 8.04 45.81 7.97L45.81 7.97L45.81 7.97Q46.28 6.64 47.24 5.65L47.24 5.65L47.24 5.65Q48.20 4.66 49.45 4.66L49.45 4.66L49.45 4.66Q49.63 4.66 49.99 4.72L49.99 4.72Z"></path></g><!----><g data-v-423bf9ae="" id="8a2731e8-dcc1-4214-900f-50474905f14d" transform="matrix(1.1155555725097657,0,0,1.1155555725097657,0.6044433593749972,-14.595557623969214)" stroke="none" fill="#88DF95"><path d="M106.7 42.7l-7.1 7.1L113.8 64 99.6 78.2l7.1 7.1L128 64zM14.2 64l14.2-14.2-7.1-7.1L0 64l21.3 21.3 7.1-7.1z"></path><path d="M100.3 64L85.7 49.4l13.9-13.9-7.1-7.1-13.9 13.9-7.1-7.1 13.9-13.9-7.5-7.5L64 27.7 50.1 13.9l-7.5 7.5 13.9 13.9-7.1 7.1-13.8-14-7.1 7.1 13.9 13.9L27.7 64l14.6 14.6-13.9 13.8 7.1 7.1 13.9-13.9 7.1 7.1-13.9 13.9 7.5 7.5L64 100.3l13.9 13.9 7.5-7.5-13.9-13.9 7.1-7.1 13.9 13.9 7.1-7.1-13.9-13.9L100.3 64zM64 85.3L42.7 64 64 42.7 85.3 64 64 85.3z"></path></g><!----></svg>